{"title":"The Trotsky 2009 DvDRip.XviD.Feel-Free","uid":5865074,"size":1433830521,"categoryP":"video","categoryS":"movies","magnet":"?xt=urn:btih:e6f45e96a43f4f831c9009af7b28e0ad9857a723&amp;dn=The+Trotsky+2009+DvDRip.XviD.Feel-Free&amp;tr=udp%3A%2F%2Ftracker.openbittorrent.com%3A80&amp;tr=udp%3A%2F%2Fopen.demonii.com%3A1337&amp;tr=udp%3A%2F%2Ftracker.coppersurfer.tk%3A6969&amp;tr=udp%3A%2F%2Fexodus.desync.com%3A6969","seeders":0,"leechers":1,"uploader":"neon","files":-1,"time":1286130258,"description":"Plot:\nLeon Bronstein is not your average Montreal West high school student. For one thing, none of his peers can claim to be the reincarnation of early 20th century Soviet iconoclast and Red Army hero, Leon Trotsky. When his father sends Leon to public school as punishment for starting a hunger strike at Papa's clothing factory, Leon quickly lends new meaning to the term 'student union', determined as he is to live out his pre-ordained destiny to the fullest and change the world.\n\n\nGenre:Comedy\nLanguage:English\n &lt;a href=&quot; http://www.imdb.com/title/tt1295072/&quot; rel=&quot;nofollow&quot; target=&quot;_NEW&quot;&gt; http://www.imdb.com/title/tt1295072/&lt;/a&gt;\nSource:DVD\n\nGeneral\nComplete name :The.Trotsky.2009.DvDRip.XviD.Feel-Free\nFormat : AVI\nFormat/Info : Audio Video Interleave\nFile size : 1.34 GiB\nDuration : 1h 53mn\nOverall bit rate : 1 690 Kbps\nVideo #0\nID : 0\nFormat : MPEG-4 Visual\nFormat profile : AdvancedSimple@L5\nFormat settings, BVOP : Yes\nFormat settings, QPel : No\nFormat settings, GMC : No warppoints\nFormat settings, Matrix : Default (H.263)\nMuxing mode : Packed bitstream\nCodec ID : XVID\nCodec ID/Hint : XviD\nDuration : 1h 53mn\nBit rate : 1 233 Kbps\nWidth : 688 pixels\nHeight : 288 pixels\nDisplay aspect ratio : 2.35:1\nFrame rate : 23.976 fps\nResolution : 24 bits\nColorimetry : 4:2:0\nScan type : Progressive\nBits/(Pixel*Frame) : 0.259\nStream size : 997 MiB (73%)\nWriting library : XviD 1.2.1 (UTC 2008-12-04)\nAudio #1\nID : 1\nFormat : AC-3\nFormat/Info : Audio Coding 3\nCodec ID : 2000\nDuration : 1h 53mn\nBit rate mode : Constant\nBit rate : 448 Kbps\nChannel(s) : 6 channels\nChannel positions : Front: L C R, Surround: L R, LFE\nSampling rate : 48.0 KHz\nStream size : 362 MiB (27%)\nAlignment : Split accross interleaves\nInterleave, duration : 42 ms (1.00 video frame)\nInterleave, preload duration : 500 ms","torrent":{"xt":"urn:btih:e6f45e96a43f4f831c9009af7b28e0ad9857a723","amp;dn":"The+Trotsky+2009+DvDRip.XviD.Feel-Free","amp;tr":["udp%3A%2F%2Ftracker.openbittorrent.com%3A80","udp%3A%2F%2Fopen.demonii.com%3A1337","udp%3A%2F%2Ftracker.coppersurfer.tk%3A6969","udp%3A%2F%2Fexodus.desync.com%3A6969"],"infoHash":"e6f45e96a43f4f831c9009af7b28e0ad9857a723","infoHashBuffer":{"type":"Buffer","data":[230,244,94,150,164,63,79,131,28,144,9,175,123,40,224,173,152,87,167,35]},"announce":[],"urlList":[]}}